<svg width="336.009583" height="20.000000" viewBox="0 0 336.01 20" fill="none" xmlns="http://www.w3.org/2000/svg" xmlns:xlink="http://www.w3.org/1999/xlink">
	<desc>
			Created with Pixso.
	</desc>
	<defs>
		<clipPath id="clip7_259">
			<rect id="Frame" width="20.000000" height="19.000000" transform="translate(24.000000 1.000000)" fill="white" fill-opacity="0"/>
		</clipPath>
		<clipPath id="clip7_261">
			<rect id="Frame" width="20.000000" height="19.000000" transform="translate(72.000000 1.000000)" fill="white" fill-opacity="0"/>
		</clipPath>
		<clipPath id="clip7_263">
			<rect id="Frame" width="20.000000" height="19.000000" transform="translate(48.000000 1.000000)" fill="white" fill-opacity="0"/>
		</clipPath>
		<clipPath id="clip7_265">
			<rect id="Frame" width="20.000000" height="19.000000" transform="translate(0.000000 1.000000)" fill="white" fill-opacity="0"/>
		</clipPath>
		<clipPath id="clip7_267">
			<rect id="Frame" width="20.000000" height="19.000000" transform="translate(96.000000 1.000000)" fill="white" fill-opacity="0"/>
		</clipPath>
	</defs>
	<rect id="Frame" width="20.000000" height="19.000000" transform="translate(24.000000 1.000000)" fill="#FFFFFF" fill-opacity="0"/>
	<g clip-path="url(#clip7_259)">
		<path id="Vector" d="M33.07 1.61C33.41 0.79 34.58 0.79 34.92 1.61L36.95 6.46C37.1 6.8 37.43 7.04 37.8 7.07L43.07 7.49C43.96 7.56 44.32 8.67 43.64 9.25L39.63 12.66C39.34 12.91 39.22 13.29 39.31 13.65L40.53 18.76C40.74 19.62 39.79 20.31 39.03 19.85L34.52 17.11C34.2 16.91 33.79 16.91 33.47 17.11L28.96 19.85C28.2 20.31 27.25 19.62 27.46 18.76L28.68 13.65C28.77 13.29 28.65 12.91 28.36 12.66L24.35 9.25C23.67 8.67 24.03 7.56 24.92 7.49L30.19 7.07C30.56 7.04 30.89 6.8 31.04 6.46L33.07 1.61Z" fill="#000000" fill-opacity="1.000000" fill-rule="nonzero"/>
	</g>
	<rect id="Frame" width="20.000000" height="19.000000" transform="translate(72.000000 1.000000)" fill="#FFFFFF" fill-opacity="0"/>
	<g clip-path="url(#clip7_261)">
		<path id="Vector" d="M81.07 1.61C81.41 0.79 82.58 0.79 82.92 1.61L84.95 6.46C85.1 6.8 85.43 7.04 85.8 7.07L91.07 7.49C91.96 7.56 92.32 8.67 91.64 9.25L87.63 12.66C87.34 12.91 87.22 13.29 87.31 13.65L88.53 18.76C88.74 19.62 87.79 20.31 87.03 19.85L82.52 17.11C82.2 16.91 81.79 16.91 81.47 17.11L76.96 19.85C76.2 20.31 75.25 19.62 75.46 18.76L76.68 13.65C76.77 13.29 76.65 12.91 76.36 12.66L72.35 9.25C71.67 8.67 72.03 7.56 72.92 7.49L78.19 7.07C78.56 7.04 78.89 6.8 79.04 6.46L81.07 1.61Z" fill="#000000" fill-opacity="1.000000" fill-rule="nonzero"/>
	</g>
	<rect id="Frame" width="20.000000" height="19.000000" transform="translate(48.000000 1.000000)" fill="#FFFFFF" fill-opacity="0"/>
	<g clip-path="url(#clip7_263)">
		<path id="Vector" d="M57.07 1.61C57.41 0.79 58.58 0.79 58.92 1.61L60.95 6.46C61.1 6.8 61.43 7.04 61.8 7.07L67.07 7.49C67.96 7.56 68.32 8.67 67.64 9.25L63.63 12.66C63.34 12.91 63.22 13.29 63.31 13.65L64.53 18.76C64.74 19.62 63.79 20.31 63.03 19.85L58.52 17.11C58.2 16.91 57.79 16.91 57.47 17.11L52.96 19.85C52.2 20.31 51.25 19.62 51.46 18.76L52.68 13.65C52.77 13.29 52.65 12.91 52.36 12.66L48.35 9.25C47.67 8.67 48.03 7.56 48.92 7.49L54.19 7.07C54.56 7.04 54.89 6.8 55.04 6.46L57.07 1.61Z" fill="#000000" fill-opacity="1.000000" fill-rule="nonzero"/>
	</g>
	<rect id="Frame" width="20.000000" height="19.000000" transform="translate(0.000000 1.000000)" fill="#FFFFFF" fill-opacity="0"/>
	<g clip-path="url(#clip7_265)">
		<path id="Vector" d="M9.07 1.61C9.41 0.79 10.58 0.79 10.92 1.61L12.95 6.46C13.1 6.8 13.43 7.04 13.8 7.07L19.07 7.49C19.96 7.56 20.32 8.67 19.64 9.25L15.63 12.66C15.34 12.91 15.22 13.29 15.31 13.65L16.53 18.76C16.74 19.62 15.79 20.31 15.03 19.85L10.52 17.11C10.2 16.91 9.79 16.91 9.47 17.11L4.96 19.85C4.2 20.31 3.25 19.62 3.46 18.76L4.68 13.65C4.77 13.29 4.65 12.91 4.36 12.66L0.35 9.25C-0.33 8.67 0.03 7.56 0.92 7.49L6.19 7.07C6.56 7.04 6.89 6.8 7.04 6.46L9.07 1.61Z" fill="#000000" fill-opacity="1.000000" fill-rule="nonzero"/>
	</g>
	<rect id="Frame" width="20.000000" height="19.000000" transform="translate(96.000000 1.000000)" fill="#FFFFFF" fill-opacity="0"/>
	<g clip-path="url(#clip7_267)">
		<path id="Vector" d="M105.07 1.61C105.41 0.79 106.58 0.79 106.92 1.61L108.95 6.46C109.1 6.8 109.43 7.04 109.8 7.07L115.07 7.49C115.96 7.56 116.32 8.67 115.64 9.25L111.63 12.66C111.34 12.91 111.22 13.29 111.31 13.65L112.53 18.76C112.74 19.62 111.79 20.31 111.03 19.85L106.52 17.11C106.2 16.91 105.79 16.91 105.47 17.11L100.96 19.85C100.2 20.31 99.25 19.62 99.46 18.76L100.68 13.65C100.77 13.29 100.65 12.91 100.36 12.66L96.35 9.25C95.67 8.67 96.03 7.56 96.92 7.49L102.19 7.07C102.57 7.04 102.89 6.8 103.04 6.46L105.07 1.61Z" fill="#000000" fill-opacity="1.000000" fill-rule="nonzero"/>
	</g>
</svg>
